<svg width="61" height="16" viewBox="0 0 61 16" fill="none" xmlns="http://www.w3.org/2000/svg">
<path d="M3.63545 5.32914C3.45783 5.15207 3.31693 4.94164 3.22096 4.70998C3.125 4.47831 3.07582 4.22997 3.07623 3.97924C3.07619 3.84471 3.09019 3.71055 3.11793 3.57892L4.25226 4.71264L10.2255 10.6822L11.682 9.22507L5.71034 3.2571L4.57592 2.12338C4.70764 2.09566 4.84189 2.08167 4.97649 2.0817C5.22737 2.0813 5.47588 2.13052 5.70768 2.22643C5.93948 2.32234 6.15005 2.46307 6.32723 2.64059L12.3005 8.61013L12.9286 7.98244L13.7762 7.13535L8.12978 1.49248L7.80932 1.17222C7.06057 0.423716 6.04493 0.0030798 4.98588 0.00292973C3.92683 0.00277966 2.91109 0.423068 2.16212 1.17136C1.41315 1.91966 0.992338 2.93467 0.992188 3.99308C0.992037 5.05148 1.41258 6.06659 2.16134 6.8151L6.27434 10.9256L8.12657 12.7863L9.60389 11.3035L3.63545 5.32914Z" fill="#1E4A7D"/>
<path d="M14.3814 6.49465C14.9873 5.72735 15.2903 4.7645 15.233 3.78873C15.1756 2.81297 14.7619 1.8922 14.0703 1.20104C13.3787 0.50988 12.4574 0.0963898 11.481 0.0390925C10.5047 -0.0182049 9.54121 0.284647 8.77344 0.890164L14.3814 6.49465Z" fill="#1E4A7D"/>
<path d="M46.9513 9.56762C46.9373 9.51208 46.9168 9.45835 46.8905 9.40749C46.865 9.35354 46.832 9.30347 46.7927 9.25862C46.7618 9.21851 46.7193 9.18883 46.6709 9.17371C46.6185 9.1594 46.5649 9.14981 46.5107 9.14493C46.4785 9.14361 46.4464 9.14971 46.417 9.16276C46.3875 9.17581 46.3616 9.19542 46.3409 9.22015C46.1999 9.38028 46.1453 9.41232 46.0123 9.55323C45.7832 9.74859 45.1711 10.1825 45.0782 10.237C45.0894 9.82681 45.1259 9.41772 45.1873 9.01202C45.2257 8.65813 45.2962 8.3619 45.3347 8.05125C45.3731 7.7406 45.4212 7.43956 45.4469 7.25061C45.511 6.7382 45.6262 6.44991 45.6326 6.27537V6.25942C45.6326 6.25942 45.6326 5.81422 44.9516 5.57403C44.5631 5.43122 44.1423 5.40073 43.7373 5.48599C43.3625 5.58536 43.0194 5.7788 42.7405 6.048C42.4333 6.32328 42.1787 6.65209 41.9892 7.01839L41.3626 8.3715C41.1015 9.13371 40.0808 10.0304 40.0167 10.0944L40.0056 10.1041C39.8838 10.1953 39.6578 10.3523 39.5553 10.4131C39.6097 9.83988 39.677 9.35143 39.7155 8.99435C39.7539 8.63726 39.8372 8.40029 39.8757 8.01919C39.9077 7.71975 39.9463 7.48595 39.9671 7.28259C40.0232 6.75737 40.1273 6.43236 40.1001 6.26263C40.1001 6.26263 40.1 5.81743 39.4207 5.57724C39.0378 5.43721 38.6238 5.40507 38.2238 5.48435C37.8397 5.58044 37.4877 5.77596 37.2032 6.05121C36.8954 6.32642 36.6402 6.65523 36.4501 7.0216C36.2217 7.47681 36.0289 7.94897 35.8733 8.4339C35.8063 8.63321 35.7622 8.83956 35.7419 9.04884C35.6426 9.1225 35.5432 9.19618 35.4358 9.26503C35.2991 9.3515 35.1661 9.42835 35.0368 9.49561C34.9182 9.55826 34.7951 9.6118 34.6683 9.65573C34.5745 9.69175 34.4755 9.71228 34.3751 9.71656C34.2844 9.70992 34.1966 9.6819 34.1188 9.63486C34.0811 9.59287 34.0556 9.54142 34.0451 9.48599C34.0278 9.41192 34.018 9.33623 34.0162 9.26018C34.0162 9.17371 34.0162 9.07924 34.0162 8.97675C34.0207 8.87385 34.0341 8.7715 34.0562 8.67088C34.0819 8.52997 34.1124 8.36671 34.1476 8.18096C34.1829 7.99361 34.2262 7.75659 34.279 7.47156C34.3319 7.18654 34.3783 6.94157 34.4152 6.73981C34.4502 6.55584 34.4722 6.36963 34.4809 6.18256C34.4873 6.01283 34.4906 5.87832 34.4906 5.77904C34.4893 5.72633 34.4736 5.67496 34.4454 5.6304C34.4172 5.58585 34.3775 5.54976 34.3304 5.52602C34.2363 5.46279 34.1218 5.43762 34.0099 5.45558C33.8622 5.45274 33.7157 5.48395 33.582 5.54682C33.5312 5.5644 33.4853 5.59376 33.448 5.63244C33.4107 5.67112 33.383 5.71804 33.3673 5.76942L32.7264 8.73336C32.7008 8.87281 32.656 9.00811 32.5934 9.13532C32.5426 9.24327 32.4738 9.34179 32.39 9.42672C32.3228 9.50284 32.2424 9.56629 32.1528 9.61406C32.0652 9.65955 31.9728 9.69502 31.8772 9.71977C31.7637 9.7411 31.6478 9.74757 31.5327 9.739C31.4603 9.74521 31.3883 9.72405 31.3308 9.67974C31.2872 9.64065 31.2519 9.59328 31.2268 9.54041C31.2002 9.48994 31.1808 9.43606 31.169 9.38028C31.156 9.31597 31.1496 9.25057 31.1498 9.18497C31.1498 9.18497 31.1593 9.12572 31.1786 9.02484C31.1978 8.92396 31.2218 8.78139 31.2523 8.61005C31.2827 8.43872 31.3245 8.21294 31.3742 7.92951L31.5136 7.15928C31.5552 6.9271 31.5968 6.69815 31.6369 6.47076C31.6769 6.24338 31.7154 6.00636 31.7491 5.75816C31.7471 5.71691 31.7343 5.67688 31.7121 5.64205C31.6899 5.60723 31.6591 5.57885 31.6225 5.55964C31.4926 5.49538 31.3492 5.46302 31.2042 5.46519C31.0859 5.44967 30.9656 5.46281 30.8534 5.50358C30.7545 5.587 30.6733 5.68934 30.6146 5.80461C30.6146 5.80461 30.4368 6.0224 29.908 8.62288C29.9074 8.62873 29.9074 8.63461 29.908 8.64047C29.908 8.64047 29.908 8.65013 29.908 8.65493C29.8984 8.70617 29.8905 8.75259 29.8841 8.79583C29.8601 8.92393 29.8391 9.06807 29.7894 9.1049C29.6125 9.23995 29.4225 9.35685 29.2222 9.45393C29.0505 9.54169 28.8622 9.5919 28.6696 9.60124C28.5586 9.60865 28.4477 9.58539 28.3491 9.534C28.2602 9.48644 28.183 9.41975 28.1232 9.33868C28.0616 9.25227 28.0129 9.15729 27.9789 9.05682C27.9421 8.95239 27.9131 8.84533 27.8924 8.73656C27.8715 8.62607 27.8571 8.51722 27.8475 8.40833C27.8378 8.29944 27.8347 8.20335 27.8315 8.11528C27.8238 7.82627 27.8323 7.53702 27.8572 7.24896C27.8817 6.94365 27.9137 6.63139 27.9532 6.3122C27.9933 5.99194 28.0381 5.67175 28.0878 5.33548C28.1375 4.99921 28.184 4.67891 28.2241 4.36666C28.2641 4.05441 28.2962 3.7582 28.3219 3.47798C28.346 3.22521 28.3551 2.97122 28.3491 2.71737C28.3432 2.53765 28.3163 2.35919 28.269 2.1857C28.2231 2.01119 28.1482 1.84565 28.0477 1.69577C27.9497 1.55096 27.8219 1.42865 27.6728 1.33705C27.5096 1.24315 27.3227 1.19868 27.1346 1.20898C26.7116 1.22277 26.3034 1.36769 25.9665 1.62368C25.7311 1.79894 25.5189 2.00338 25.3352 2.23214C25.0892 2.52996 24.87 2.8488 24.6799 3.18493C24.424 3.65114 24.1966 4.13241 23.9989 4.62609C23.7698 5.18813 23.6785 5.59805 23.4109 6.33143L23.4638 5.88146C23.4638 5.88146 23.5038 5.62208 23.6432 4.74298C23.7536 4.15634 23.8189 3.56212 23.8387 2.96554C23.8348 2.73918 23.8047 2.51404 23.749 2.29461C23.7017 2.10867 23.616 1.93469 23.4974 1.78381C23.3797 1.6419 23.2282 1.53178 23.0568 1.46356C22.8464 1.38354 22.6213 1.34917 22.3966 1.36269C22.2136 1.36985 22.0346 1.41799 21.8728 1.50359C21.6754 1.60832 21.4997 1.74963 21.3552 1.91994C21.1619 2.14349 21.0002 2.39241 20.8745 2.65975C20.7069 3.00068 20.5769 3.35879 20.4867 3.72779C20.477 3.75948 20.4716 3.79232 20.4707 3.82544C20.4749 3.87664 20.4914 3.92605 20.5187 3.96954C20.551 4.02369 20.5898 4.07372 20.6341 4.11849C20.6774 4.16412 20.7264 4.20391 20.78 4.23695C20.824 4.26662 20.8758 4.28277 20.9289 4.28339C20.9857 4.28713 21.042 4.27192 21.0892 4.24015C21.1355 4.20705 21.1706 4.1607 21.1901 4.10723C21.2758 3.90476 21.3755 3.70842 21.4882 3.51958C21.5851 3.35306 21.6921 3.19263 21.8086 3.03919C21.9014 2.91931 22.0091 2.8117 22.1291 2.71893C22.2024 2.65293 22.294 2.61057 22.3918 2.59728C22.4152 2.59524 22.4387 2.59884 22.4605 2.60775C22.4822 2.61667 22.5016 2.63061 22.5168 2.64849C22.5462 2.68564 22.567 2.72885 22.5777 2.775C22.5908 2.82739 22.5978 2.88112 22.5985 2.93512V3.07125C22.5889 3.46196 22.5744 3.82863 22.5584 4.17291C22.5424 4.51719 22.5072 4.87425 22.4608 5.1881L22.3646 5.8559C22.3165 6.20978 22.2572 6.58448 22.1835 6.97679C22.1237 7.30345 22.0602 7.64719 21.9929 8.00801C21.9256 8.36883 21.8539 8.76166 21.7781 9.18653C21.7526 9.31247 21.7339 9.43967 21.7221 9.56762C21.7105 9.70607 21.7074 9.84512 21.7125 9.98396C21.7148 10.1173 21.739 10.2493 21.7845 10.3747C21.8225 10.4808 21.8813 10.5782 21.9576 10.6613C22.0257 10.7357 22.1095 10.7941 22.2028 10.8326C22.2911 10.8692 22.386 10.8872 22.4816 10.8855C22.6396 10.8825 22.7934 10.8347 22.9253 10.7478C23.0762 10.6386 23.1942 10.4901 23.2666 10.3186C23.3734 9.94177 23.4921 9.54145 23.6224 9.11765C23.749 8.69331 23.8804 8.26103 24.0166 7.82388C24.1528 7.38673 24.2937 6.94951 24.4395 6.51557C24.5853 6.08162 24.7359 5.66692 24.8881 5.27301C25.0403 4.87909 25.1926 4.51078 25.348 4.1697C25.4834 3.86343 25.6392 3.56657 25.8143 3.28103C25.9426 3.06548 26.0977 2.86697 26.2757 2.69016C26.3913 2.56232 26.551 2.48281 26.7227 2.46756C26.7633 2.46496 26.8038 2.47222 26.8409 2.48867C26.878 2.50512 26.9106 2.53025 26.9359 2.56201C26.9909 2.63187 27.0317 2.71188 27.056 2.79744C27.0826 2.89064 27.1008 2.98599 27.1105 3.08243C27.1217 3.18171 27.1266 3.26181 27.1282 3.32106C27.1339 3.54732 27.1178 3.77357 27.0801 3.99675C27.0401 4.23214 26.9919 4.47714 26.9326 4.72374C26.8733 4.97034 26.8077 5.22658 26.734 5.48279C26.6603 5.73899 26.593 5.99842 26.5353 6.26583C26.4776 6.53325 26.4279 6.8038 26.3895 7.07922C26.3524 7.35836 26.338 7.64007 26.3463 7.92153C26.353 8.1449 26.3712 8.36775 26.4007 8.58926C26.4306 8.81826 26.4777 9.04469 26.5417 9.26659C26.6025 9.48341 26.6846 9.69366 26.7869 9.89428C26.883 10.0833 27.0072 10.2566 27.1554 10.4083C27.3013 10.5548 27.475 10.6709 27.6664 10.7494C27.8811 10.8351 28.1119 10.8733 28.3427 10.8615C28.5453 10.8544 28.7463 10.8238 28.9418 10.7702C29.1482 10.713 29.3493 10.638 29.5427 10.5461C29.6019 10.5188 29.7638 10.4436 29.9016 10.3763C29.9385 10.4782 29.9927 10.573 30.0618 10.6565C30.1368 10.7474 30.2339 10.8174 30.3438 10.8599C30.4401 10.9049 30.5429 10.9346 30.6483 10.9479C30.8166 10.9653 30.9863 10.9653 31.1546 10.9479C31.3119 10.9235 31.4661 10.8822 31.6145 10.8246C31.7778 10.7615 31.9327 10.6787 32.0759 10.578C32.2353 10.4671 32.3853 10.3434 32.5245 10.2081C32.6737 10.0607 32.8135 9.90409 32.9428 9.739C32.975 9.89214 33.0173 10.043 33.0694 10.1905C33.1116 10.3148 33.1714 10.4324 33.2471 10.5396C33.313 10.6332 33.399 10.7108 33.4987 10.767C33.6067 10.8241 33.7276 10.8522 33.8497 10.8486C33.9973 10.847 34.144 10.8276 34.287 10.791C34.4504 10.7516 34.611 10.7013 34.7677 10.6405C34.9279 10.5765 35.0978 10.5028 35.2597 10.4211C35.4215 10.3394 35.5801 10.2514 35.7211 10.1601C35.7884 10.1185 35.8428 10.0768 35.9037 10.0352C36.0258 10.2832 36.2083 10.4969 36.4341 10.6565C36.6627 10.8243 36.9389 10.9146 37.2224 10.9143C37.6102 10.9143 38.0091 10.7206 38.4193 10.3331L38.3104 10.9864C38.0796 11.1871 37.8808 11.3744 37.7142 11.5484C37.5476 11.7224 37.3339 11.9541 37.0733 12.2434C36.9411 12.3914 36.8192 12.5481 36.7081 12.7126C36.5879 12.8855 36.503 13.02 36.4501 13.1161L36.1617 13.6205C35.9349 13.9877 35.8233 14.4143 35.8413 14.8454C35.8545 15.0331 35.9057 15.2162 35.9918 15.3835C36.0656 15.5289 36.1761 15.6524 36.3122 15.7422C36.4473 15.8286 36.5949 15.8939 36.7497 15.9359C36.9183 15.9789 37.0917 15.9999 37.2656 15.9984C37.4842 16.0011 37.7015 15.9637 37.9065 15.8879C38.0883 15.8223 38.2574 15.7258 38.4064 15.6028C38.5521 15.4782 38.6789 15.3331 38.7829 15.1721C38.8896 15.011 38.9803 14.84 39.0538 14.6613C39.1281 14.4795 39.1897 14.2928 39.2381 14.1025C39.2861 13.9229 39.323 13.7405 39.3486 13.5564C39.3694 13.3963 39.3903 13.2362 39.4111 13.0649C39.4208 12.9912 39.4336 12.8855 39.4512 12.7446C39.4961 12.2728 39.5366 11.9525 39.5729 11.7838C39.5814 11.7138 39.6037 11.6462 39.6387 11.5849C39.6736 11.5235 39.7204 11.4698 39.7763 11.4268C39.9366 11.3211 40.0968 11.1401 40.4509 10.9127L40.5279 10.8631C40.7527 10.6792 40.9667 10.4824 41.1688 10.2738C41.2633 10.1777 41.3434 10.0864 41.4155 9.99835C41.4155 9.99835 41.4155 10.0096 41.4155 10.016C41.5376 10.2727 41.7242 10.4934 41.9571 10.6565C42.1854 10.8248 42.4617 10.9151 42.7454 10.9143C43.1331 10.9143 43.5321 10.7206 43.9422 10.3331L43.8333 10.9864C43.6026 11.1871 43.404 11.3744 43.2373 11.5484C43.0707 11.7224 42.8571 11.9541 42.5964 12.2434C42.4642 12.3914 42.3421 12.5481 42.2311 12.7126C42.1114 12.8855 42.0249 13.02 41.9715 13.1161C41.9181 13.2122 41.822 13.3803 41.6831 13.6205C41.457 13.9879 41.3454 14.4144 41.3626 14.8454C41.3751 15.0332 41.4263 15.2165 41.5132 15.3835C41.587 15.5289 41.6975 15.6524 41.8336 15.7422C41.9684 15.8292 42.1161 15.8946 42.2711 15.9359C42.4397 15.979 42.613 16 42.787 15.9984C43.0056 16.0011 43.2229 15.9637 43.4279 15.8879C43.6097 15.8223 43.7788 15.7258 43.9278 15.6028C44.0735 15.4782 44.2004 15.3331 44.3045 15.1721C44.4111 15.011 44.5017 14.84 44.5752 14.6613C44.6495 14.4795 44.7111 14.2928 44.7595 14.1025C44.8075 13.9229 44.8444 13.7405 44.8699 13.5564C44.8908 13.3963 44.9117 13.2362 44.9325 13.0649C44.9422 12.9912 44.955 12.8855 44.9726 12.7446C45.0175 12.2728 45.058 11.9525 45.0943 11.7838C45.121 11.6324 45.1925 11.4924 45.2995 11.3819C45.4517 11.2442 45.5717 11.1817 45.8793 10.9015C46.6532 10.1953 46.8312 9.94073 46.8312 9.94073C46.9209 9.81743 46.9112 9.79981 46.9144 9.7806C46.9381 9.71207 46.9506 9.64013 46.9513 9.56762ZM38.2991 12.6661C38.2767 12.8535 38.2574 13.0088 38.2414 13.1353C38.2271 13.254 38.2031 13.3713 38.1694 13.486C38.1149 13.6829 38.0667 13.8415 38.0267 13.9664C37.9866 14.0913 37.9418 14.2065 37.8921 14.3314C37.8553 14.4311 37.808 14.5267 37.7511 14.6165C37.7056 14.6843 37.6517 14.7461 37.5909 14.8006C37.5381 14.8544 37.4733 14.895 37.4019 14.9191C37.3262 14.9427 37.2472 14.9541 37.168 14.9528C36.9234 14.9528 36.8614 14.7787 36.9821 14.4307C37.135 13.9997 37.3337 13.5863 37.575 13.1977C37.7681 12.8569 38.0267 12.5576 38.336 12.317L38.2991 12.6661ZM39.0106 6.75255L38.9945 6.85029L38.8342 7.83185C38.775 8.16492 38.6276 8.7526 38.5299 9.07926C38.4065 9.49239 37.8488 9.8623 37.5989 9.8623C37.5254 9.86013 37.454 9.83732 37.3928 9.79655C37.3316 9.75578 37.2831 9.69863 37.2528 9.63165C37.1182 9.39306 37.0846 9.04241 37.1551 8.57643C37.2317 8.06185 37.4011 7.56543 37.6551 7.11128C38.0829 6.37629 38.4977 6.40194 38.8759 6.42596C39.0217 6.43397 39.0217 6.63085 39.0073 6.75255H39.0106ZM43.8349 12.6661C43.8125 12.8535 43.7933 13.0088 43.7773 13.1353C43.7631 13.254 43.7389 13.3713 43.7052 13.486C43.6491 13.6829 43.6025 13.8415 43.5625 13.9664C43.5224 14.0913 43.476 14.2065 43.4279 14.3314C43.3911 14.4311 43.3438 14.5267 43.2869 14.6165C43.2413 14.6843 43.1875 14.7461 43.1267 14.8006C43.0739 14.8544 43.0091 14.895 42.9377 14.9191C42.862 14.9427 42.783 14.9541 42.7038 14.9528C42.4581 14.9528 42.3961 14.7787 42.5179 14.4307C42.6701 13.9994 42.8689 13.586 43.1107 13.1977C43.3039 12.8569 43.5625 12.5576 43.8718 12.317L43.8349 12.6661ZM44.5127 6.70775L44.2531 8.01763C44.1926 8.38793 44.1037 8.75301 43.9871 9.10967C43.8269 9.50839 43.3831 9.8623 43.1331 9.8623C43.0596 9.86013 42.9882 9.83732 42.927 9.79655C42.8659 9.75578 42.8173 9.69863 42.787 9.63165C42.6524 9.39306 42.6268 9.04241 42.6876 8.57643C42.7579 8.17694 42.8963 7.79241 43.0963 7.43951C43.577 6.49155 43.6891 6.29622 44.3605 6.46435C44.4113 6.47899 44.4546 6.51212 44.4822 6.55716C44.5098 6.60221 44.5195 6.65591 44.5094 6.70775H44.5127Z" fill="#1E4A7D"/>
<path d="M48.1602 5.56758H48.6616V6.2081C48.7919 5.97196 48.9853 5.77661 49.2201 5.64374C49.4549 5.51087 49.722 5.44573 49.9917 5.45554C50.9947 5.45554 51.3199 6.12008 51.4209 6.38269C51.5523 6.09445 51.7669 5.85205 52.0374 5.68682C52.3078 5.52159 52.6215 5.44108 52.9382 5.45554C53.149 5.44506 53.3598 5.47741 53.5578 5.55062C53.7558 5.62383 53.9368 5.73632 54.0901 5.88143C54.5035 6.29456 54.5292 6.8598 54.5292 7.27293V10.6805H54.0277V7.27293C54.0277 6.93506 54.0037 6.50759 53.7265 6.21936C53.6257 6.12151 53.5058 6.04553 53.3742 5.99621C53.2427 5.94688 53.1024 5.92527 52.9621 5.93272C51.6082 5.93272 51.5955 7.28579 51.5955 7.59804V10.6805H51.094V7.39788C51.094 7.07762 51.07 5.93272 49.9724 5.93272C49.0815 5.93272 48.6681 6.70929 48.6681 7.7229V10.6805H48.1666L48.1602 5.56758Z" fill="#1E4A7D"/>
<path d="M60.4996 1.54492H61.0011V10.6722H60.4996V9.7579C60.2845 10.0858 59.9902 10.3541 59.6437 10.538C59.2973 10.7219 58.9099 10.8155 58.5176 10.81C57.2262 10.81 56.0117 9.88285 56.0117 8.08781C56.0117 6.22072 57.2775 5.44406 58.5176 5.44406C58.9055 5.432 59.2902 5.51748 59.6365 5.69262C59.9828 5.86775 60.2796 6.12698 60.4996 6.4465V1.54492ZM56.5373 8.08461C56.5373 9.577 57.5146 10.3408 58.5433 10.3408C59.5719 10.3408 60.5237 9.577 60.5237 8.08461C60.5237 6.89486 59.785 5.93085 58.5176 5.93085C57.4649 5.93085 56.5373 6.65626 56.5373 8.08461Z" fill="#1E4A7D"/>
</svg>
